<svg xmlns="http://www.w3.org/2000/svg" viewBox="0 0 64 64" id="fishing-pole">
  <path d="M42.348,37.9a3.255,3.255,0,0,0-.82.59,3.162,3.162,0,0,0-.661,3.49l2.781-2.78Z"></path>
  <path d="M52.817 49.781a3.163 3.163 0 01-4.46 0l-6.829-6.83a3.083 3.083 0 01-.661-.97l2.781-2.78-1.3-1.3a3.163 3.163 0 013.63.59l6.839 6.84A3.161 3.161 0 0152.817 49.781zM27.661 30.317c-5.914-.845-7.6-7.308-7.663-7.584l-.138-.548 2.679-2.679 1.414 1.414L22.1 22.77c.488 1.376 2.122 5.036 5.841 5.567z"></path>
  <path d="M37.278,35.161l-.271.23-1.62,1.44-.039.04-.051.04c-1.949,1.73-2.18,3.02-2.139,3.63a.677.677,0,0,0,.039.25,4.581,4.581,0,0,0-.409.36,4.515,4.515,0,0,0-.94,1.36,2.886,2.886,0,0,1-.591-1.19c-.219-.88-.26-2.51,1.38-4.53-3.169-1.22-4.979-5.08-5.57-6.57a5.291,5.291,0,0,1-.21-.58l-.2-.58.82-.82,1.19-1.19.709-.71,1.411,1.41-.711.71-1.109,1.12c.6,1.45,2.419,5.24,5.279,5.56.13.01.26.02.39.02Z"></path>
  <rect width="3.223" height="2" x="34.166" y="34.024" transform="rotate(-45 35.778 35.023)"></rect>
  <path d="M39.528,47.881a4.76,4.76,0,0,1-8.13-3.36,4.666,4.666,0,0,1,.45-2.01,4.515,4.515,0,0,1,.94-1.36,4.581,4.581,0,0,1,.409-.36,4.8,4.8,0,0,1,5.99.04c.12.11.231.21.341.32a4.6,4.6,0,0,1,.9,1.27A4.77,4.77,0,0,1,39.528,47.881Z"></path>
  <path d="M43.648,39.2l-3.221,3.22a4.6,4.6,0,0,0-.9-1.27c-.11-.11-.221-.21-.341-.32l1.63-1.63L17.228,15.611a1.165,1.165,0,0,0-1.64,0,.765.765,0,0,0-.18.8,7.8,7.8,0,0,0,5.24,4.98,4,4,0,0,0,.459.11l-.28,1.98a6.334,6.334,0,0,1-.64-.14h-.01a9.706,9.706,0,0,1-6.16-5.1,11.039,11.039,0,0,1-.489-1.15,2.777,2.777,0,0,1,1.219-3.33,3.223,3.223,0,0,1,3.9.44Z"></path>
  <path d="M14.017,18.241a15.7,15.7,0,0,1,1.581-2.75l-.32-.37.479.28a1.031,1.031,0,0,0-1.01-1.64,1.143,1.143,0,0,0-.62.37c-1.63,1.76-7.95,12.66.26,22.84a3.158,3.158,0,0,1,.56-.76,2.851,2.851,0,0,1,.9-.62v-.01C10.468,28.811,12.3,21.931,14.017,18.241Z"></path>
  <path d="M19.987,39.841a3.043,3.043,0,0,1-1.42,1.42,3.147,3.147,0,0,1-4.18-4.29,3.158,3.158,0,0,1,.56-.76,2.851,2.851,0,0,1,.9-.62v-.01a3.146,3.146,0,0,1,4.139,4.26Z"></path>
  <path d="M22.437,46.741a3.161,3.161,0,0,1-4.459,0l-.051-.05-.81.81-1.41-1.41,2.22-2.23,1.471,1.47a1.149,1.149,0,1,0,1.619-1.63l-2.45-2.44a3.043,3.043,0,0,0,1.42-1.42l2.45,2.45A3.161,3.161,0,0,1,22.437,46.741Z"></path>
</svg>
